<mxfile host="Electron" modified="2023-07-20T08:02:27.094Z" agent="Mozilla/5.0 (Windows NT 10.0; Win64; x64) AppleWebKit/537.36 (KHTML, like Gecko) draw.io/21.6.1 Chrome/112.0.5615.204 Electron/24.6.1 Safari/537.36" etag="gA2M74otM2QHsdt-F3go" version="21.6.1" type="device">
  <diagram name="Страница 1" id="l5bWDbTpyihi1j7opc75">
    <mxGraphModel dx="1434" dy="854" grid="1" gridSize="10" guides="1" tooltips="1" connect="1" arrows="1" fold="1" page="1" pageScale="1" pageWidth="700" pageHeight="1000" math="0" shadow="0">
      <root>
        <mxCell id="0" />
        <mxCell id="1" parent="0" />
        <mxCell id="VAT4OncWoWKB6w1WJmAD-1" value="DocumentItem" style="swimlane;fontStyle=1;align=center;verticalAlign=top;childLayout=stackLayout;horizontal=1;startSize=26;horizontalStack=0;resizeParent=1;resizeParentMax=0;resizeLast=0;collapsible=1;marginBottom=0;whiteSpace=wrap;html=1;" vertex="1" parent="1">
          <mxGeometry width="260" height="150" as="geometry" />
        </mxCell>
        <mxCell id="VAT4OncWoWKB6w1WJmAD-2" value="+ text: string&lt;br&gt;- state: DocumentItemState" style="text;strokeColor=none;fillColor=none;align=left;verticalAlign=top;spacingLeft=4;spacingRight=4;overflow=hidden;rotatable=0;points=[[0,0.5],[1,0.5]];portConstraint=eastwest;whiteSpace=wrap;html=1;" vertex="1" parent="VAT4OncWoWKB6w1WJmAD-1">
          <mxGeometry y="26" width="260" height="34" as="geometry" />
        </mxCell>
        <mxCell id="VAT4OncWoWKB6w1WJmAD-3" value="" style="line;strokeWidth=1;fillColor=none;align=left;verticalAlign=middle;spacingTop=-1;spacingLeft=3;spacingRight=3;rotatable=0;labelPosition=right;points=[];portConstraint=eastwest;strokeColor=inherit;" vertex="1" parent="VAT4OncWoWKB6w1WJmAD-1">
          <mxGeometry y="60" width="260" height="8" as="geometry" />
        </mxCell>
        <mxCell id="VAT4OncWoWKB6w1WJmAD-4" value="+ getState(): DocumentItemState&lt;br&gt;+ setState(state: DocumentItemState): void&lt;br&gt;+ publishDoc(): void&lt;br&gt;+ deleteDoc(): void" style="text;strokeColor=none;fillColor=none;align=left;verticalAlign=top;spacingLeft=4;spacingRight=4;overflow=hidden;rotatable=0;points=[[0,0.5],[1,0.5]];portConstraint=eastwest;whiteSpace=wrap;html=1;" vertex="1" parent="VAT4OncWoWKB6w1WJmAD-1">
          <mxGeometry y="68" width="260" height="82" as="geometry" />
        </mxCell>
        <mxCell id="VAT4OncWoWKB6w1WJmAD-5" value="&lt;i&gt;DocumentItemState&lt;/i&gt;" style="swimlane;fontStyle=1;align=center;verticalAlign=top;childLayout=stackLayout;horizontal=1;startSize=26;horizontalStack=0;resizeParent=1;resizeParentMax=0;resizeLast=0;collapsible=1;marginBottom=0;whiteSpace=wrap;html=1;" vertex="1" parent="1">
          <mxGeometry x="320" width="280" height="120" as="geometry" />
        </mxCell>
        <mxCell id="VAT4OncWoWKB6w1WJmAD-6" value="+ name: string&lt;br&gt;+ item: DocumentItem" style="text;strokeColor=none;fillColor=none;align=left;verticalAlign=top;spacingLeft=4;spacingRight=4;overflow=hidden;rotatable=0;points=[[0,0.5],[1,0.5]];portConstraint=eastwest;whiteSpace=wrap;html=1;" vertex="1" parent="VAT4OncWoWKB6w1WJmAD-5">
          <mxGeometry y="26" width="280" height="34" as="geometry" />
        </mxCell>
        <mxCell id="VAT4OncWoWKB6w1WJmAD-7" value="" style="line;strokeWidth=1;fillColor=none;align=left;verticalAlign=middle;spacingTop=-1;spacingLeft=3;spacingRight=3;rotatable=0;labelPosition=right;points=[];portConstraint=eastwest;strokeColor=inherit;" vertex="1" parent="VAT4OncWoWKB6w1WJmAD-5">
          <mxGeometry y="60" width="280" height="8" as="geometry" />
        </mxCell>
        <mxCell id="VAT4OncWoWKB6w1WJmAD-8" value="+ setContext(item: DocumnetItem): void&lt;br&gt;+ publish(): void&lt;br&gt;+ delete(): void" style="text;strokeColor=none;fillColor=none;align=left;verticalAlign=top;spacingLeft=4;spacingRight=4;overflow=hidden;rotatable=0;points=[[0,0.5],[1,0.5]];portConstraint=eastwest;whiteSpace=wrap;html=1;" vertex="1" parent="VAT4OncWoWKB6w1WJmAD-5">
          <mxGeometry y="68" width="280" height="52" as="geometry" />
        </mxCell>
        <mxCell id="VAT4OncWoWKB6w1WJmAD-9" value="DraftDocumentItemState" style="swimlane;fontStyle=1;align=center;verticalAlign=top;childLayout=stackLayout;horizontal=1;startSize=26;horizontalStack=0;resizeParent=1;resizeParentMax=0;resizeLast=0;collapsible=1;marginBottom=0;whiteSpace=wrap;html=1;" vertex="1" parent="1">
          <mxGeometry x="70" y="290" width="280" height="140" as="geometry" />
        </mxCell>
        <mxCell id="VAT4OncWoWKB6w1WJmAD-10" value="+ name: string&lt;br style=&quot;border-color: var(--border-color);&quot;&gt;+ item: DocumentItem" style="text;strokeColor=none;fillColor=none;align=left;verticalAlign=top;spacingLeft=4;spacingRight=4;overflow=hidden;rotatable=0;points=[[0,0.5],[1,0.5]];portConstraint=eastwest;whiteSpace=wrap;html=1;" vertex="1" parent="VAT4OncWoWKB6w1WJmAD-9">
          <mxGeometry y="26" width="280" height="44" as="geometry" />
        </mxCell>
        <mxCell id="VAT4OncWoWKB6w1WJmAD-11" value="" style="line;strokeWidth=1;fillColor=none;align=left;verticalAlign=middle;spacingTop=-1;spacingLeft=3;spacingRight=3;rotatable=0;labelPosition=right;points=[];portConstraint=eastwest;strokeColor=inherit;" vertex="1" parent="VAT4OncWoWKB6w1WJmAD-9">
          <mxGeometry y="70" width="280" height="8" as="geometry" />
        </mxCell>
        <mxCell id="VAT4OncWoWKB6w1WJmAD-12" value="+ setContext(item: DocumnetItem): void&lt;br style=&quot;border-color: var(--border-color);&quot;&gt;+ publish(): void&lt;br style=&quot;border-color: var(--border-color);&quot;&gt;+ delete(): void" style="text;strokeColor=none;fillColor=none;align=left;verticalAlign=top;spacingLeft=4;spacingRight=4;overflow=hidden;rotatable=0;points=[[0,0.5],[1,0.5]];portConstraint=eastwest;whiteSpace=wrap;html=1;" vertex="1" parent="VAT4OncWoWKB6w1WJmAD-9">
          <mxGeometry y="78" width="280" height="62" as="geometry" />
        </mxCell>
        <mxCell id="VAT4OncWoWKB6w1WJmAD-13" value="" style="endArrow=diamondThin;endFill=1;endSize=24;html=1;rounded=0;" edge="1" parent="1" source="VAT4OncWoWKB6w1WJmAD-5" target="VAT4OncWoWKB6w1WJmAD-1">
          <mxGeometry width="160" relative="1" as="geometry">
            <mxPoint x="200" y="240" as="sourcePoint" />
            <mxPoint x="360" y="240" as="targetPoint" />
          </mxGeometry>
        </mxCell>
        <mxCell id="VAT4OncWoWKB6w1WJmAD-15" value="Extends" style="endArrow=block;endSize=16;endFill=0;html=1;rounded=0;" edge="1" parent="1" source="VAT4OncWoWKB6w1WJmAD-9" target="VAT4OncWoWKB6w1WJmAD-5">
          <mxGeometry width="160" relative="1" as="geometry">
            <mxPoint x="310" y="260" as="sourcePoint" />
            <mxPoint x="470" y="260" as="targetPoint" />
          </mxGeometry>
        </mxCell>
        <mxCell id="VAT4OncWoWKB6w1WJmAD-16" value="PublishDocumentItemState" style="swimlane;fontStyle=1;align=center;verticalAlign=top;childLayout=stackLayout;horizontal=1;startSize=26;horizontalStack=0;resizeParent=1;resizeParentMax=0;resizeLast=0;collapsible=1;marginBottom=0;whiteSpace=wrap;html=1;" vertex="1" parent="1">
          <mxGeometry x="370" y="290" width="280" height="140" as="geometry" />
        </mxCell>
        <mxCell id="VAT4OncWoWKB6w1WJmAD-17" value="+ name: string&lt;br style=&quot;border-color: var(--border-color);&quot;&gt;+ item: DocumentItem" style="text;strokeColor=none;fillColor=none;align=left;verticalAlign=top;spacingLeft=4;spacingRight=4;overflow=hidden;rotatable=0;points=[[0,0.5],[1,0.5]];portConstraint=eastwest;whiteSpace=wrap;html=1;" vertex="1" parent="VAT4OncWoWKB6w1WJmAD-16">
          <mxGeometry y="26" width="280" height="44" as="geometry" />
        </mxCell>
        <mxCell id="VAT4OncWoWKB6w1WJmAD-18" value="" style="line;strokeWidth=1;fillColor=none;align=left;verticalAlign=middle;spacingTop=-1;spacingLeft=3;spacingRight=3;rotatable=0;labelPosition=right;points=[];portConstraint=eastwest;strokeColor=inherit;" vertex="1" parent="VAT4OncWoWKB6w1WJmAD-16">
          <mxGeometry y="70" width="280" height="8" as="geometry" />
        </mxCell>
        <mxCell id="VAT4OncWoWKB6w1WJmAD-19" value="+ setContext(item: DocumnetItem): void&lt;br style=&quot;border-color: var(--border-color);&quot;&gt;+ publish(): void&lt;br style=&quot;border-color: var(--border-color);&quot;&gt;+ delete(): void" style="text;strokeColor=none;fillColor=none;align=left;verticalAlign=top;spacingLeft=4;spacingRight=4;overflow=hidden;rotatable=0;points=[[0,0.5],[1,0.5]];portConstraint=eastwest;whiteSpace=wrap;html=1;" vertex="1" parent="VAT4OncWoWKB6w1WJmAD-16">
          <mxGeometry y="78" width="280" height="62" as="geometry" />
        </mxCell>
        <mxCell id="VAT4OncWoWKB6w1WJmAD-20" value="Extends" style="endArrow=block;endSize=16;endFill=0;html=1;rounded=0;" edge="1" parent="1" source="VAT4OncWoWKB6w1WJmAD-16" target="VAT4OncWoWKB6w1WJmAD-5">
          <mxGeometry width="160" relative="1" as="geometry">
            <mxPoint x="354" y="310" as="sourcePoint" />
            <mxPoint x="463" y="170" as="targetPoint" />
          </mxGeometry>
        </mxCell>
        <mxCell id="VAT4OncWoWKB6w1WJmAD-21" value="Use" style="endArrow=open;endSize=12;dashed=1;html=1;rounded=0;" edge="1" parent="1">
          <mxGeometry width="160" relative="1" as="geometry">
            <mxPoint x="320" y="30.003636363636375" as="sourcePoint" />
            <mxPoint x="259.9999999999999" y="32.73090909090912" as="targetPoint" />
          </mxGeometry>
        </mxCell>
      </root>
    </mxGraphModel>
  </diagram>
</mxfile>
